<mxfile host="Electron" modified="2023-04-29T20:38:45.766Z" agent="Mozilla/5.0 (X11; Linux x86_64) AppleWebKit/537.36 (KHTML, like Gecko) draw.io/21.2.1 Chrome/112.0.5615.87 Electron/24.1.2 Safari/537.36" etag="jmg0q6cePuEwzRGrjqEc" version="21.2.1" type="device">
  <diagram name="Page-1" id="e3wSCbzf-qm2hHRYg5RN">
    <mxGraphModel dx="1434" dy="875" grid="1" gridSize="10" guides="1" tooltips="1" connect="1" arrows="1" fold="1" page="1" pageScale="1" pageWidth="850" pageHeight="1100" background="none" math="0" shadow="0">
      <root>
        <mxCell id="0" />
        <mxCell id="1" parent="0" />
        <mxCell id="2bUVMHkPHfgX8aAUZUjg-22" value="" style="rounded=0;whiteSpace=wrap;html=1;fillColor=#e1d5e7;strokeColor=#9673a6;" vertex="1" parent="1">
          <mxGeometry x="440" y="200" width="80" height="40" as="geometry" />
        </mxCell>
        <mxCell id="2bUVMHkPHfgX8aAUZUjg-20" value="" style="rounded=0;whiteSpace=wrap;html=1;fillColor=#d5e8d4;strokeColor=#82b366;" vertex="1" parent="1">
          <mxGeometry x="280" y="200" width="80" height="40" as="geometry" />
        </mxCell>
        <mxCell id="2bUVMHkPHfgX8aAUZUjg-21" value="" style="rounded=0;whiteSpace=wrap;html=1;fillColor=#f8cecc;strokeColor=#b85450;" vertex="1" parent="1">
          <mxGeometry x="360" y="200" width="80" height="40" as="geometry" />
        </mxCell>
        <mxCell id="2bUVMHkPHfgX8aAUZUjg-18" value="" style="rounded=0;whiteSpace=wrap;html=1;fillColor=#dae8fc;strokeColor=#6c8ebf;" vertex="1" parent="1">
          <mxGeometry x="200" y="200" width="80" height="40" as="geometry" />
        </mxCell>
        <mxCell id="2bUVMHkPHfgX8aAUZUjg-17" value="" style="rounded=0;whiteSpace=wrap;html=1;fillColor=#ffe6cc;strokeColor=#d79b00;" vertex="1" parent="1">
          <mxGeometry x="120" y="200" width="80" height="40" as="geometry" />
        </mxCell>
        <mxCell id="2bUVMHkPHfgX8aAUZUjg-1" value="&lt;b&gt;Protocol version&lt;br&gt;0x02&lt;/b&gt;" style="rounded=0;whiteSpace=wrap;html=1;fillColor=#ffe6cc;strokeColor=#d79b00;" vertex="1" parent="1">
          <mxGeometry x="120" y="280" width="80" height="40" as="geometry" />
        </mxCell>
        <mxCell id="2bUVMHkPHfgX8aAUZUjg-2" value="&lt;b&gt;PUSH DATA&amp;nbsp;&lt;br&gt;0x00&lt;/b&gt;" style="rounded=0;whiteSpace=wrap;html=1;fillColor=#d5e8d4;strokeColor=#82b366;" vertex="1" parent="1">
          <mxGeometry x="280" y="280" width="80" height="40" as="geometry" />
        </mxCell>
        <mxCell id="2bUVMHkPHfgX8aAUZUjg-3" value="&lt;b&gt;JSON rxpk object&amp;nbsp;&lt;/b&gt;" style="rounded=0;whiteSpace=wrap;html=1;fillColor=#e1d5e7;strokeColor=#9673a6;" vertex="1" parent="1">
          <mxGeometry x="440" y="280" width="80" height="40" as="geometry" />
        </mxCell>
        <mxCell id="2bUVMHkPHfgX8aAUZUjg-4" value="&lt;b&gt;Random token&lt;/b&gt;" style="rounded=0;whiteSpace=wrap;html=1;fillColor=#dae8fc;strokeColor=#6c8ebf;" vertex="1" parent="1">
          <mxGeometry x="200" y="280" width="80" height="40" as="geometry" />
        </mxCell>
        <mxCell id="2bUVMHkPHfgX8aAUZUjg-5" value="&lt;b&gt;Gateway EUI&lt;/b&gt;" style="rounded=0;whiteSpace=wrap;html=1;fillColor=#f8cecc;strokeColor=#b85450;" vertex="1" parent="1">
          <mxGeometry x="360" y="280" width="80" height="40" as="geometry" />
        </mxCell>
        <mxCell id="2bUVMHkPHfgX8aAUZUjg-6" value="&lt;b&gt;0&lt;/b&gt;" style="text;html=1;align=center;verticalAlign=middle;resizable=0;points=[];autosize=1;strokeColor=none;fillColor=none;" vertex="1" parent="1">
          <mxGeometry x="145" y="205" width="30" height="30" as="geometry" />
        </mxCell>
        <mxCell id="2bUVMHkPHfgX8aAUZUjg-7" value="&lt;b&gt;1-2&lt;/b&gt;" style="text;html=1;align=center;verticalAlign=middle;resizable=0;points=[];autosize=1;strokeColor=none;fillColor=none;" vertex="1" parent="1">
          <mxGeometry x="220" y="205" width="40" height="30" as="geometry" />
        </mxCell>
        <mxCell id="2bUVMHkPHfgX8aAUZUjg-8" value="&lt;b&gt;3&lt;/b&gt;" style="text;html=1;align=center;verticalAlign=middle;resizable=0;points=[];autosize=1;strokeColor=none;fillColor=none;" vertex="1" parent="1">
          <mxGeometry x="305" y="205" width="30" height="30" as="geometry" />
        </mxCell>
        <mxCell id="2bUVMHkPHfgX8aAUZUjg-9" value="&lt;b&gt;4-11&lt;/b&gt;" style="text;html=1;align=center;verticalAlign=middle;resizable=0;points=[];autosize=1;strokeColor=none;fillColor=none;" vertex="1" parent="1">
          <mxGeometry x="375" y="205" width="50" height="30" as="geometry" />
        </mxCell>
        <mxCell id="2bUVMHkPHfgX8aAUZUjg-10" value="&lt;b&gt;Byte position&amp;nbsp;&lt;/b&gt;" style="text;html=1;align=center;verticalAlign=middle;resizable=0;points=[];autosize=1;strokeColor=none;fillColor=none;" vertex="1" parent="1">
          <mxGeometry x="5" y="200" width="100" height="30" as="geometry" />
        </mxCell>
        <mxCell id="2bUVMHkPHfgX8aAUZUjg-11" value="&lt;b&gt;12 - end&lt;/b&gt;" style="text;html=1;align=center;verticalAlign=middle;resizable=0;points=[];autosize=1;strokeColor=none;fillColor=none;" vertex="1" parent="1">
          <mxGeometry x="445" y="205" width="70" height="30" as="geometry" />
        </mxCell>
        <mxCell id="2bUVMHkPHfgX8aAUZUjg-12" value="&lt;b&gt;protocol version&lt;br&gt;0x02&lt;/b&gt;" style="whiteSpace=wrap;html=1;fillColor=#ffe6cc;strokeColor=#d79b00;" vertex="1" parent="1">
          <mxGeometry x="120" y="360" width="80" height="40" as="geometry" />
        </mxCell>
        <mxCell id="2bUVMHkPHfgX8aAUZUjg-13" value="&lt;b&gt;PUSH_DATA token&lt;/b&gt;" style="whiteSpace=wrap;html=1;fillColor=#dae8fc;strokeColor=#6c8ebf;" vertex="1" parent="1">
          <mxGeometry x="200" y="360" width="80" height="40" as="geometry" />
        </mxCell>
        <mxCell id="2bUVMHkPHfgX8aAUZUjg-14" value="&lt;b&gt;PUSH ACK 0x01&lt;/b&gt;" style="whiteSpace=wrap;html=1;fillColor=#d5e8d4;strokeColor=#82b366;" vertex="1" parent="1">
          <mxGeometry x="280" y="360" width="80" height="40" as="geometry" />
        </mxCell>
        <mxCell id="2bUVMHkPHfgX8aAUZUjg-15" value="&lt;b&gt;PUSH_DATA&lt;/b&gt;" style="text;html=1;align=center;verticalAlign=middle;resizable=0;points=[];autosize=1;strokeColor=none;fillColor=none;" vertex="1" parent="1">
          <mxGeometry y="285" width="100" height="30" as="geometry" />
        </mxCell>
        <mxCell id="2bUVMHkPHfgX8aAUZUjg-16" value="&lt;b&gt;PUSH_ACK&lt;/b&gt;" style="text;html=1;align=center;verticalAlign=middle;resizable=0;points=[];autosize=1;strokeColor=none;fillColor=none;" vertex="1" parent="1">
          <mxGeometry x="5" y="358" width="90" height="30" as="geometry" />
        </mxCell>
        <mxCell id="2bUVMHkPHfgX8aAUZUjg-23" value="" style="endArrow=none;html=1;rounded=0;entryX=1;entryY=1;entryDx=0;entryDy=0;" edge="1" parent="1" target="2bUVMHkPHfgX8aAUZUjg-5">
          <mxGeometry width="50" height="50" relative="1" as="geometry">
            <mxPoint x="560" y="440" as="sourcePoint" />
            <mxPoint x="450" y="370" as="targetPoint" />
          </mxGeometry>
        </mxCell>
        <mxCell id="2bUVMHkPHfgX8aAUZUjg-24" value="" style="endArrow=none;html=1;rounded=0;entryX=1;entryY=1;entryDx=0;entryDy=0;" edge="1" parent="1" target="2bUVMHkPHfgX8aAUZUjg-3">
          <mxGeometry width="50" height="50" relative="1" as="geometry">
            <mxPoint x="560" y="360" as="sourcePoint" />
            <mxPoint x="450" y="370" as="targetPoint" />
          </mxGeometry>
        </mxCell>
        <mxCell id="2bUVMHkPHfgX8aAUZUjg-30" value="" style="shape=image;verticalLabelPosition=bottom;labelBackgroundColor=default;verticalAlign=top;aspect=fixed;imageAspect=0;image=data:image/png,iVBORw0KGgoAAAANSUhEUgAAAhoAAAERCAIAAACy9JkvAAAAA3NCSVQICAjb4U/gAAAgAElEQVR4Xu2dCVwTRxfAEy5Zj6jRtNEo0iJSRIuUolSrtWq1WrUe9fi86oFYz6q1Vet91npWLd5XvRUV71s8EE8E5BYFkfsMJISEHLv5NpBjN9mFAAECvHzfry27O2/f/Gd23sy8mTcMBvyAABAAAkAACAABIAAEgAAQAAJAAAgAASAABIAAEAACQAAIAAEgAASAABAAAkAACAABIAAEgAAQAAJAAAgAASAABIAAEAACQAAIAAEgAASAABAAAkAACAABIAAEgAAQAAJAAAgAASAABIAAEAACQAAIAAEgAASAABAAAkAACAABIAAEgAAQAAJAAAgAASAABIAAEAACQAAIAAEgAASAABAAAkAACAABIAAEgAAQAAJAAAgAASAABIAAEAACQAAIAAEgAASAABAAAkAACAABIAAEgAAQAAJAAAgAASAABIAAEAACQAAIAAEgAASAABAAAkAACAABIAAEgAAQAAJAAAgAASAABIAAEAACQAAIAAEgAASAABAAAkAACAABIAAEgAAQAAJAAAgAASAABIAAEAACQAAIAAEgAASAABAAAkAACAABIAAEgAAQAAJAQJ8AZ/i2Rwm5ErlCJkp/fXxmR0T/AfgbCAABIAAEajwB7sDlZx6FxryLj49/r/rFx8dFB/iM5ZkuYxzvi2kKpfqHFTxe4WA62SAJCAABIAAEzIOA6/pnYkzT1mv+LX97eDDLZPo5rnsm1b1CHrW7t+lkm0zJWi7Iiip/bI8RPw/8slUjawsmU+++UomhcqlYmJOeEPXiwY1XKVTp7XtNHt37Mw6Cp1ffVipRWX7Kq6v/+b7ka1LY9Zz4vz7tP6pvpX0LLlwuSnt98/jJJ+n6ctluI3+ZOrJP5w5t7bhsVn0bC1RWgGuR9C7y1eMbZ187Lts+86uPmPwXPj//sPC2UJsacR4w6aevP21qa6nNCq6LNO/Dc7//Lobjz7Hdh48f5NGaZUN8QFGY8/bh2X233uprUcG/HfpOHdWzXXNbK40yqg8LQ1GFXCYtFOfnZacnxoYEPojMMuI9jn2njiDJ0qRRopKc6HvHDt5LpJdi33vKmN6fNbO1NCxh2kS4pgpJdsy9E4f8DSRXSBnaN1b0Btdz9Nj+nVo0IpQtWaSqwhVkRt87c+RBguHLylnlDAQ5DfjVe+yAr92c7Fs0ZzXAa660IDcrOT4y6MHFI7sPPqL8hHAhiPPASSO6fdqknqpmFlXauEendt8g1kle9/Hj+nX8qL7uQ8MfVBTihXTy4D2KHBmoVlUXWLyPmlrrtyUMpoWlNWUDVB61EBZSj9hcMS1NJro86pQjDdLtj6O75/Zr18xGlhv3cNevY1ff1TVk5ZBnHkk6LrqTpTDoSej3LFTNoEyQ9PrOkRUjSbOU7CG7IwpQw8dVrVH2g+UexTOarAE7Q0XUT6G5T9Z1I857srrO2P84qQCl1QlvkNU3MWnQ3y46jNyJpxMIPRaCUpg87do8Z6TjwjuZ1HnFJG//G802ZYlwxh17J6HNg0Y3DG82ksIfnN7o1Z1L//bSZGGS+LPTnenScyadS6bONVWxka5hisQz4zlkwRVThk7Jil5HOq96lEtfZwi5QkVhPoPIPdnyVzmS2ojr+K03Y3PldKWOFWaG+i4bZE+RV+6Ek+/1qy4qCNraT6so0m3dkzzqDOI5+negWfXNuZPPJsr0MSjijg433SfmtO6Z7vPCG4KNrhRYzfgSe9h/77STdUpFsu9Eve/MjHWnV40740omZTtP19Rgcn7YiTmeGgPguvmVQb3RJEVzb88vni11+uuF/seilY8K7y3UzqlyB24IyKAVaKCTPGpvX+13xBpwIEZu8Ij6giLNz8th+uUM2rzKInx6mtCbxxqwn14ZQyUxtCDh3pbR1CaB1XdvFG3GimVhhRE+OhLk4nbdRF9EhpqQr2CyoI0dSeIqqAx9TazYHe6vN3Noy1YvT9KXGwigK1LlCDpzB673Ty7Ub0IN+GJo/hvfedrPRy2Aprag/AfL3NWVkrfwnoAugxg5RxUjaZrUbI+xS7cdfpysazGVpjUnSNcl1+IFMtzAYgpx6qMNdLXfNNkxvRTurKuEhhcV+i8yoWPJ9OpSSrQwuCrLyxcrDa6WcIFp1bTj/zYc3T/RvughQbZAQpdemc/PkBQ9JcrOo32LMj8vS1b8QvvJ/+yc1+0jw3Fy8W2Kf1pZ1dNelWdkC+U0uigxYU5GQTo/H6N7QCbIySpWluI1Zb8kz8ihVYZCGtOifptec/dfODGNYoWKMIufT5cxtSymTbvvRvWk7KGymje0NZjFpFCB8hKTiTTkkKxsxZShfIkpLsqyckU0RasvXinOy9JOK1SsymlEIz2WnzywoCevnsEMj/7LmRYN2w1fd/zINMKomsGQ8/NxX4P+swyLJl0nLxhePGyV5Ypoq6dSWiAoMEhdrRf4L0+s/fPfF5lYZWkhebLuh08bN+d92rb1R/Vb9lhEmPKurFeaWC75oyy15pj47aYQZ2kgRPIhr7Hrl+24jRvik7bqu0qZMDtHUID/xIVyhpWNtc7RUPwE05rt9FnDsGNX3kjz3mQhn7W3YyFIg3o6H4GigJ+aEHrpn5WbH6Yo8DT5bzKsndq3aYw/ZWut9SSg4ty0D2HXd6xady8Jf4rVa9We1X15RGOiLEwPu3Ph9JmzF67ceRL+QWjFadWCZaMrB6Ugwu+gX3Txd6ZIeydo4vwZr1GxLprMyPOzU+ODzm5esTvgRZy0hYvjR/Vtkfr4BLv6AawwLyM59vGh9StOxeQb8CnvBUVabF6T9p/xGtriWbbSkpULM9My80RS1NKmnpUBVptmLl1dmS/O+SdISe9NjxOw2rXlIkxFoVjGtLVVT54rUQXGtCj2WDEtmjTBXh+7EGnQ5tTr+NOMUZ3YRT0JpTyfnyMQqYq2oEBugdQjFIYkLzs3v/hOodIGUQPC8nDCl2IJ+lRImfLiLDWd5F0K1tqpTVNrTCYRF1Vd1Ko+XiPVCZVyET8nTyQSZCeF3961Zt2N90WcKlrliqWzBmw9u22EA0LorGGS1JDb506d9r1051lUmqxhi1acBtoax7Ru+lkXZ/Shb0DRx4H/FDmpytZfuNg1a4xoS0R1nWnJatOaEXj8zgeF+H1uw/Yudo0s5KglqdwKct6/OrVl1anwvGJZlfdPjpPHl26uLo5tuCxlXnoeuY5SvNa6Zb8pXl+10DQ6ytywc/s1HyvF4+W5JBXl5eYbVHmjJSE8l84eX3R0dmjBYuSn5ZZTEMfZ09P983ZtmtVHhZkCAhaOU7ev2jcUJGZTCG7YeeyM/o711RVUKUvw9/nvsenaH6MRVMKDrH6kmRlZ2A6CN4Pl2Gvy2lNBGXqzVYr4YyN0M6F2qwIJjgJFyoUpVDOBvEX3hboBO5p1bRbBYYB0/SeU9A5UFHFwrCM5u5w+K+6k6CbDFAknDTweiPvWYJluksFwiM0edSKBMAaXPV+v9xITEqZXhusxbN62C8Hp+vMjaPa9xW60s274rEi0Jvto5p0z9/k6nookyvlX9phT2uzKY/b31wxheH8QZ0/Q7Bu/agqDNeTwW83kmuL98VF0E97lUMaEaEsR5baFVAtItVWT1CRVDum6/ilpGgp3Gj7dOoy0bhXpOOlQGKHqqzyL6Vdn69U78kekrsKYIu3yDKKwEj+iUqCU4zav++R1R64/i07OlegccBi+piH7Q/jjS/uWjfagqx4M6srPdhkwbeX2A8fP+J49dWT3piXe/V0oR9U6XRHX0ct8jp0971fSz/e/9eMpRvZUObbrOXXD8VsvY9MEUq0zCsNkoox3Qbf+WzvBkzZDJGGO/edu930QlpAt1nLBF6/kJkc9uYxTceP2WuOfin/cmDTl2gJXww+aO+taFqEtFN6vgZNdVHDxayWak+I07H47yM50TPp8vW4G2gTmhON9KZ04OYzm3v3DnkJhh6nntG4+vHnUOSvVz1JXYoIg8zAnxQohLng7Q54Tx6RRewfQfGDsYUfeaTy9aMblGS5zb2YT6mT65emGE7CcKRdSNNZTFv5vD03NLsGcEHw1uI9wElXPAFe/PMpQlGclXTLGnJiiyrFHHo8nOt8xedLF6U6GmUI6L71PKCvcoIiDt2kLo+h5SnOCPyiJ2E2oEFVnTuwHLj0bnKHf39FzRKEFSU8Oz+1JVUcMvsRTvy89/TJFTF5QgKGFmRHXtk1yp6nziOeG59TLePQ0KQxcZWfInXyF13/xmZKzhHsxEx/6TKbv0eECHYas8ovIKcHFi6HizExN9wHNf7BEq5h9z/Fzl6xcs2bt+pMhhO8eE0ee+2st8bdmzco/fx3bvdQcafPnMHTl6YCopGyBMC8zMeL+0YX9DduC0vCY5r4R5oSBdN4WSuj0K5Wkpd4mMCdk3xT+FRUEb+tFWcUcRm2+Gf4hLS0h5PziHgZPGFRi/fUk5mRO8PJDuq4JzCXaUUz+7r9hlD0kfKDxQWMZFGkXvbkMuznXiA697Jvz7PWrBLEbJAve4qa5T29OkO47wzRFjRut6dRrzsqljL5ylfe3MebEBFWOM/5MImGoixuJV1tICxV1OWQNORRLbIIwaYQPabMEjTnBVw1n31ukXRBRNeYE8ZzrGyOkXklmuL5AwQ/ZP8lgHYnel4jJpLrRgL4MTJbxdPsoqq2InKl+uv2K+skIf2PSp2tKbHwR12nHIgRGZQkrTLqzojflN4h4zjsXa4x506kmC95c/NVxJ5yIL9k66+UPFcccHEmpht6Hwxm+mzz6xYe//Kcb+hi0jib94Axd8UaLt25S34bkLlLKZQVyo5OX/qD4bRqf6Lhj1u80/cTdU6vHddbv+cSdWfB9xzYtWti7Df/rkdapWvobzPMJyZMd+++mojrlmJZ2X/T63HB4zOAMGd6Dp56JRjOfXfVLZySev/48W0vNommXQf/T7xlb2troluTLpUbwkoik6jl9XClrG91iByLA8iljXkVQ8SrH8ujhqnUO4JlTymIenAmmmCrH7wn9/R4nEMvZ2uHLPm1oiWCFBQWKYve8Bbu71x+j9D8D2pQVv+E05cDR9cOdGml3kpUskmnZtNPkf076DKPueKgTM61tbGgFMq0/6jJz1/G/DBdoSeOSs9QcStai5Lu8EduObRrjwqLVgJicWa9V70X7d3kZzII7eR06tm6YY4MyNqQWFqrPmfVFd/fWpa/WIChigXza5RuqpkAvr45eM//n0oikFF4mHhNmjqzUSlNGCjqlEZexv/RrS/TkY6KMD0nU303J5Up3V/jyWmC8jLi8hVmP6zF62dHHcckRgddO7dmweNqI7o5ltbcWbUYcfi8g/t7vH9aq3CDotK/I9aybj8JyCZaUaclr69bYQCJvxNCvuRprkvHk8iXV9seU81efZWrbKAvWlwPH6i3AlwkLCtVUlbJCo3oAmTmCQrU+Sok4n9AEapUqpzIGmarWCxWvck3cHEl1CcuIDX5H91UIX76OExDL2drusy6037syN8D3Hj70VBFiWn8yeO68rhRdjMrg5zBtw8qRbRFi51Epz425e+SveT8PG9Dvh5+8/thy8lE8PplDeLsFy3Xy+nUEdyqtZkq5MPVtZOSbpFzcVUp4imnJ7jxrwyr92Wuh/4ZFq4/dCnwZEhISSvq9foPPxNG+hnSDPWLNmp876BpcfO4j6dm5nctnjhv6/Xf9Bv9v2uKtJ+6/zSOYLaat/bAlq8aRDKTTrE2rfnIggcEkaa8u+iz7ZfTgft99P3TczKX/nLz/Jpd6HaY8W4Bv0TNOYfVTSkWBIIeuPmklsT5zbEVh4Sybt25XooEvkyrGP6w32SWPOjymZw/Vr2fv/sMmzFm1y08140kaiKH5gasJ7ZYJJrtwdZ28T8eVvPUPk+enxTy9sn/FOE+671BviF3C8Lj4VjW54omlg/T0iSBNJOLDY4NdWfbzdX4S3Os+QZN/rpdfqm66BSt48XdncrPDHbM3lC/DMFT0zne2bn0q/WQXA+k492ICPsWNyXNf7xtDVSPLrYzxlbKCTxoz2VXhKof0+DecXHAh29Q7d6nUZw0+HEvcQIRJAlcS5mcMPqKpvdYG5qm/O0yRfGGq6uHKnuxi9doeSo6Qgopizsz21O/HcXovuZ5A/lrRvIfLCLuUKL5END/G948+6kl9tqf3gVc55B22aOb1X6mmvKhwcib5Eva1lDTZ5fLnfcJ8MqbICtw42NCzgHSefe4tsZ1D+Xf/0A1QWAN2R5CmqjCUH+QzRn82AJ++dvc+GkFYeKGd7GI4TfR5EJ2clZuXJxDgyzt1u5Tw7cwiUp9XkJfHz0qKuvfPGCNoIB6bX1FMoqk2sxCqFxXCSrmmZ05KbYHxYBXJftPsCboYfAllX9lVJA1xn7o3ILGELfFq3TBUkhZ0cmFfiqaOohKXmCEzMCcMfJsn2S8VuauXXlfUabG/9ovA96qP01lTfNe71teuctyG/kP28Kq4sh1c3Z3JsEowJ0UlwXPxcHOgmbetmDKEelN5/2mkOalYlWMNPkS2D9Kna+3p82RofUibRCk+ItagPRGath0Th+7A54Iq2Zyw+uyOJDmZUeHLTdQ+TAZn6P4okkHBCp6s0XVYDL5ENPv+Ur2+jsNU3w/k1+X5LzaiBVVBNtqcOC1/lE9YscK/v4TO084edugNYXkpmnllpuarYavWOxK3qeIrKxdSLNkqKn58k+W9DLWh1FvBqq4eJl3ZhXiuCiD5X/EWD1Nk3Jhn4M+ir5zluGOauDaYJO786j/3JpRDgdKSSF7tn9b9/IGxc2aMH/xtFxe7xoRNJsS0TAtbrvvodacdW0wZNBf3IdTwn60VcR4Rn4LHawM5Sx3H/PAlSz1FhwlThW2mLFqkecJSmCrCWjYuvsus59x3TA/Wo1skJwk/7jW/bIwkKZEv6eJLVVCZsilC/TTiPOL3+SPcmuQ9PbRq4w06RanTkq9WqMopUFI5MfFtQNb0L7W2xqOmkW7joYvoH8fvCK+s33q1/56f7PDdWEyk4+j5Xru9S0xQ4Zucbh0/0W7XwaVhuYEndvpTe9yy/Hb4Bo9e2rWhZu6Yadu2U08uI5L6g0Q/3Ph31wvy1E3c8U2npw743UOzAYNh0dC5cy8OI86YQHZGZpbT3a2tblMQJv6QzOz366J+lKkthMnZWLuW6s+R2aSl/ccMRlF22nTraKfdOoT/jab4H9n/mmYiCt9kOWWazYa5/R1t80JOrjtIDYRSg/JclDzbMOt33v514778qMg3g3cq054dWjh3W3R5pBmdpsLmBF+5khx4ZMXsBYcrUVF8R+3KSSdWMlhOvYcN6d+ji1vH9p+1+5SrilFJyinubXKftn7Nw4dT/ejbSjQz8PDBBxmEr96C+63XpK4cM3KfsD9prjYGxflTYqK8NGJFRTzGfO+m/Whxj7vX2i50hc60bttrdC/2rYv0TOiSGnfdHJSx896ya0X/5hYM5Q+drOO6TDpfwcyWs8oJ0wQFSnw2XFsvmQ2b2rEYb6lbX4bVx00aEKswVigSiEqBnnhqnc//vv2rD55XhkXzb3/5o/vRUlJU6DbLgdeMFJUCTYx6mEgr8sPLmFSsazvtt8Rs/BGvkbr91U+E8aOeBRqUkyTGPzRxvsdn2qbJgt267UcMhgnNCcLjNNF97RYNO41b00lfObq/LSxt8GkC/Ftkt2vZjGhNlIXvwwMMckMQk3BxxeiLK+jkmvq65PUBr86XfAYP7ePKtRGnhNz2ux5eknYmeX85zYkqEmtO6vs3Yc/vntm384QuTLBOKbKHiUkT1YN8Xd8rxe42ed6Yrz4ujPTb+c+NBLxr9ubekb/vHSl6CeLYd/zEsaNHDO7etgmh88S0dRwwbgjH7xB97StIuLN56VkCWnyh8JiJXU3C00RCWri34xKtG8ZPjSfWBeSLMf0+J3kAS3ox0/rTb0d+z754snKqkzkow/Zwd2paRIxp1cb9G2fkfKBeNxGpZ2lMf6GiVS7tfVqeksHR2giLj+071GfcozEnzRxbqayC9qfMTo2j6d7qHpK83vPXkRFd5n+JO5KZNg5DZn8bR+5VlVQXyn4PD9ZATIRvCChpMaBcLCW5nZl4ZF8bmpcqxYJsirGYMDm3gOSRt0BYXBYjkoYhjfCSLltYWZIH/yU9rLunVMqyX9659aa4hCxtyOGQlXhccKo1KsbJrpynskIu7wu5XDmyqaQaZ04Ub07MXHwuEy9j3H+rkBbwk9+8jkwpud7LFcQlkDb16lMVoHV9PKqHVi88ir2UkIg1+O+Du6c42TCV2KiebcZ+N+8qsTmUvL29b8ntfWs9Zh8/tXGog61WjCXHyd0FOfSAVj0LC2PaFSpaVXQN6Ty2T0eiscAnE18/JthHVtcxfVzKssDQstU3w4dwTpZgY8ufNbNQxpJV31adBaZFU+6nDRn65sSa3UBXR4oepVgDVPEql/447L10AEdbehZN2nv2Ym+ntuS87zs7kco5Py70uRE2X+i/ceP5wcd+bofXAYvGHt900o2Gyl+ONCnl6eTxFtOyeatObEYcjZqNnVpxiF86JhXl0gV7YSKNmlGYGhaviXamq0gpPHaQzJQ7EBjyPBEeMVCzzQETPtnuvelRySFi8IZPnpcY9vK1ttmT4suySFavPqdVG4RRSrNIQ7myLvM6D+7txrMt+PDy1vUQ+h62qV5vnDlRyviRNy/qf6Al6iDLE+IlphnJMxtx2/AQRrpeE892a80hTssWCLIJ5qRJJyfVDDHe4bRgdZq8eP6Ze0ufGdgIycudS8+MHbC4i66tsKjf+KPi8Si1hvgxC9Q3zOMq4uq9fMKX2oksXClMEv7wMmF+gdVjdG8njRlWonKZgqJlxGdCioKrFWfKkvv10JG8Qz4V8SlQ4zETZQijX4tmvLb4igG9j6e+Y2vidCbeRKG6vTSarJmgysVeDYie6/GF1kpY8nqOHm1/cleCIb6OPw/9qhmha4OJwh5dI5SzYQrtlSzftf+M67tzUEs8zJtFubraJQgn3ZIkRCXkYJ00C9LxamXXbUgfzvmzlI2T/fD+HsQsMbDUuHC6wFNM9mfuHizGFfKwA3H45nM70tC8MCf1g8GHb6z+VM/lv45LQ3s3UU+V484Z10/ezt8QSfUo/TVhWEySCHPSzpoxrRy7j+iCPKHvx6pkcZ1cbNMiE6hGWrh/VPc2fE+ObcWaKedxO3avnfS1XUNVG6BUCN7d27XQ+08/4+oXfbZLvFNp/XRxDO7B0r4aR911uEEAHVbXAZ6EiqOU4bEAiJ0eC93UpEUjz2mblvTBWwmDH4vXjEUejhcW5Bm2FISSMmN7Ytf/z+Nn1vRvSfJ95gSc/S9E9z2xvxv5rYP6ASWacsHL3pbq19rrQopuUbtF864/jnYwgFfhC2alTHFumPWcPAfqZ5U3qGdHojtKKRXnUfR4K17lJE/+u/CcuJnE8uO+8zdMMVg9irjP/Wv614QpfAaW/fjcsWhjSyTuyNq9gXmU/QhjRRj3XNat+yHE7cRMK/uhy9aNtDNMjbhM2/Rb348JH6MSTX55+wlV26lKzbT8dMAvk3QLv4ok8obOG/lFfUK7pFS8Dw+ktF2GGhh5RRh8+2Ui4dto0n3mhrl0a7vweXWXYUsO3QlLykgKOuLtol1gmYLvDhMRCoBp6zp+7RLqrfO4Yo6D//zvUdybiLDoiMsLNKcMEBRGZXLCHhSmFadNJxZFfuy6j/l14bzRXem2RRQnQTyW794+s0ebIluC/5hWjR37/v7vv/pR4SheYPJLbLchf17VBu/AjaYizm/p7FkzZ3hPHOJJUY0oFeB4kUIh4Eu7n24foysLBttzxnHiWmwlJiOEI1SJtFv6SERch4fJMl+dWDqsIxEyy23S3iBC1ENcWZR/S32oikoI4tR77AJf4uJNNPPB5skD3TTFwXEbOPmvu8SoDfKoU7NH93KshC1ihsooUu5smDNrzrw/lm/wOXb16Vu+wSkwqOD5Bl2gebtuw6euu5mk2VaCKZJurpuOHyepv2beznPIhBl/3SGsF1aighd7Z43t40zEhzj2HDl5+syZs1S/uQeDCbEi8PfunVt0febMaZOGd3cw5GFiZSirkZEXOZPPk9ZGv/Odhfd7NT9uzwV+70j7pDDRo6UUNdkkVY7BHrovirRRA1Pkhp34rbeukBwGLb/4hhQBUomKgreRdoAjjr0n/xdOXKSa/WjHr9MnD+uqUZzVb2eowUl11KtQjcRI/Rh75H/vyPUSz1CE77IhBBvJch+36Wa8njaqPOmWFLMcu409rHdOD6bICdo3SduSOw77+0EqOfQVHqRmq+E6d2pFjV4ozEB6bnlFCoyCihPu7ZjWnfwdsTsO+nWr79MEoWYrDCZ9tZlgCey8zieRd8ngbdTL/xb0J3VmOO4jFu27FaUL6YUVPltn0L1gsEcciydE58HkiZdnE0wcr9uElQdvhqaIVC/E+b/cShfHT9Xq0ew7EVT9vhOXP+hOKFStVpWl3VpIb8eJpUzeTafa6YEpROmxoc8CHwe+CIvPlugFfjMIdMhb5E/+4opkoNLcpDehzwMfPaKSgluTzBtzNaXJGrgtKJfq3EE8rFvssYl2DPspJ/BmhuKIIzzAzbONhvEdqGuxcVdplVFli+aHKTIfrtZ8kIj7HzdSDcxNERRp6s3F2vX7SI81DzNpwtHh9TBIUw/ZQ31CjYtYVFR/X5Dqr6mVMY4h7VOc8We1NraIJR5zD9+P/jQg4ElQxIdc/dBQmDRsJ9XZaBWvcsUackfsjdAP44Thh5dGvXoa+Cz4TVpRm0D8ocKQHYOIY2/O+BPxlGWNF3byJU0nkzvuRLxeSVeCOcF71t6+hsea4qdUZb57/Tzw8VMcMb/Q4DPCA4DvG67utbHU4XTJuS7+C28W0qKDngQ+j0gU6FdbTJbo62VPWxmiEc8AACAASURBVOx6N4w3J/gelRH7o/RtMX62eMa7sKCnjwPwUop8nyEyUEfyfD3x8DjEdf61VIPDNlVg4sNxMYE4mfgMkf4DaM7NX/X7f3hOXNY9Je8WxeSCxHCcL16FiWGKi6kRY4Eb8GENIm9/0mA3OPvOIKWpL3BLOqEQVwvNu7OAggWFGqzeW4IM7QFVhVI1Vxm3FpBP+WPwFtzR7ACmTkRxFc19/rc2il6J5wQqUs5NcigpmBw5Kj9F/sp2qURlKHKiMt0ZT/8Zqevo2C19SBqtERNh4kfLNJ1Wx3XPKHbEap/WnDLJ6r07spQjHUlqycJ2dteNUEysTNlYGj7N6rOntPMpdZnB0Ky71PvNKlzltJoh3RZeTyypGAhsMUnC5d/Iu/lY/Us4u5N43IPzvBua3XHFEivFnOBz/oM2PcnUbxcpq23xRUyadPNPbX2hqmuY6leCBPwWWhBzdKL+tKVh4Wuv6O3fLSUEJKvXynt6Q6GS1cFkKVd+1ZubY9iP8gnm6/cOSpCDoXmv/iH1HDTqI55/PSNsrixBhqq3lH3nd8MRjpaEw2J/irZTkernVfIkWQlwjbll6DtBRYWkOFkGUmTSQuPWwwnvLZ234U6SJj6UgSDdBUz05vTS+ZvDyY+gckVJLhADeUo0N+zo714rtasy5QWFeHtp8Jz6gipclURKMX9efB9vzQvFJnQAlqyMnpJ4BKEPD/fO+rHf3LNx2luoREYd+gd/QimVSjSlgueqBG74akepWCVTpRDFgX90uFQLRIvSFf9MrAzdW429Lgy+7h9Je7ImSQpW8M535W87KPebVbjKad8kCfx79OiFpyPwj7rEPCgVueEn/xg9agt5N59cKJbSV125RKQp7Og9aw++zCe6UOiTlahIKTfTr/z+45gVl2LwGOqlPKk6ky075NhvI0auD9B8P3KVX0AvIZb42P+dmNb5g/dbw08sGD/tiO4DKPXFljY2RKdjKc8L/VeOGP3nuajSiqhIjBLNf3dtndfU7foO+4QzM4f8/NfNOLynV8r7VJsJCz7c3+Y9eu4VqnVxkmdb1x8IxveylyZHKc14sX/B3H/f0D8Yd2DP2egCMlxMEHJyD/UKCnpBFb7DHrD+XhwfPxpHv+uAr5WTChIf/zOCIpAJ7VuRjmM2XAxJLaCx35hCmPj89NJB9hQCWP33RqlHm5g0OylFqD/01NpvfGYjLez6Tu+ueq56xGPu6bB0EX5+NMkHg8rFWdFXluGTSKz+626/VR13Q7qP70wWpgQfnW6wdoBCSeMvIR7zzhgqo8oDDhZfCikRCfgZiW9fB944sW3BUJKHSP0Su1E7AhJyC/W1VRTmJgRsH6VzBThO3Pc8SXUSELkE8dfI8lODj81QB4JA3H9V0ZEbzFLo9YtU6URpoSdmkSY5TayM8Rxpn+T2mPr3yQdRGXR1Dd8sJfzw9BR1ZSuWWvEqp6cdq/OUbVdfp1NNqKoqbcjlrZMIPh5CYry2nI3IFOsVDoYpCvnvbq0hTcOy+v31IFldjLjQyL2DqVy4tNjKdIPdedLmCy8+CKjHKXgDwX/76MSqEQQfabF4PDunw9LytV8i/mTG3aUeHt4HnqUZBOXD8GVI9/fP7V2WdqboNbyF9wjTIVjhk9UU/jH9/LI8Jm72C0rS+kf0az9amB376NT6CZ2p1gFphXG6T995NaTYs2E4rlBN0cc/PbfJq1tpgwNev0WnnifTBJXC50sTXlz2mU/2zehnSP03HqR30+XgD3yxXCETZcc/P7eGfIIbTbIKXa7M/U9Exey7jx3Wr4vLp7yPmjbCj6JlKPBDODOT48ICr50//YR27Zr9kCXLfu7eGil4d33n0h2RrQcM/r6Hu7N9i+ZNGqqEoDJxPj8zOT7y6U2/04EJFQIBiWsNAY7b4GH9v+ro+Am+5K8+YmOBn+4r5Gckvwt7fP3C+RelLJWulCqHOPUdM7yfZ4dPWrIb1bNEC4X46dIRT2+eP33vrQnHv1VYgBz3ISN+6N6pXRsujtiaiX+IgqyU99Gv/C/53oqmW8hFox/Hc6zXqD5ftG3RpB4mxntU8SH3Lp0+86SUcqIShvTa9fLmdBdNUBss3/9P595/GymI5znypwHdPne04zbFjzXH5IWS/Ny0xPiYoDuXytC28LqOGtEfl9L64yYqKTJJgTA7OS465P7l83ffGA0Gceoz9qcBXVw+admsYT0LVCopwBvLD29C/K9euFtWvFSg4BoQAAJAAAiUQADpsTWY6MtWxB836qSpEkTCrbIRMG4bY9lkwtNAAAgAgUojwOk6dmJ/l0aSjA9vo8OCg17G8VkOPYZM/HXhFFdC4AOMH/3cMCJYpSkFgoEAEAACQKBmEXD+/XYWwROr8jviYZwNHL2yhFOEMxtqVhZBWyAABIAAEKh0AuzRJxMIu/0M3d5Fi1ukH/xm6S/prXTV4AUw2VVKHeBO3LZvRDtSEJdSUlDeVgqD9s5cQbk+kPJ5uAgEgAAVAX5kTGIB1kZz1I/hI0pUGHvlrxlT/tVf0mv4KFwBAlVLwHH9c9KxiNS9oVKvVtLmsqplAW8DAmZAAOk657+nCXkGkQ5QKR7y996J9eOpl16bgea1XgUYndT6IoYMAoFaRUDyZMfPX+1AeK5dO3e05zZpoFoKLuKnvA15GhBt2lCRtQpbVWQGzElVUIZ3AAEgYFoCkpTX9/xem1YmSKsggaraxlhBNasxOc+lc2v82LsK/jB57vtXb6DvVEGMkBwIAAEgAASAABAAAkAACAABIAAEgAAQAAJAAAgAASAABIAAEAACQAAIAAEgAASAABAAAkAACAABIAAEgAAQAAJAAAgAASAABIAAEAACQAAIAAEgAASAABAAAkAACAABIAAEgAAQAAJAAAgAASAABIAAEAACNYQAt9uE5T5n7zwNDo+JjQm9d3BON1YN0RzUBAJAAAgAAfMggLhM8AlMkZDO0UQFD5c6mYd6oAUQAAJAAAjUBAKsPhuf56H6B0Vh0qBN7khN0B90BAJAAAgAAXMgwJtxOUPfmOBh1yOOT+8I1sQcCgh0AAJAAAjUCAKcib5JCs3QBJNnvjq9eZH3ME9ejVAelAQCQAAIAAFzIWC/KlDrNMEkLza4mYtioAcQAAJAAAiYAQFjjxlEuI0bWGqObsTyUuOTzUB5UAEIAAEgAATMhYCx5sS6QT1r3UHACpnEXDIAegABIAAEgIA5EDDWnDAsLeBYeXMoMNABCAABIGCeBIw2J+apPmgFBIAAEAAC5kHAaHPCZBJGJxiGoeahP2gBBIAAEAACZkHAWHNixWE10NkTeaHYLLQHJYAAEAACQMBMCBhpTlge3Tp+rHlWiQmzE/hmkgFQAwgAASAABGoMAceRO1/ydTviFSnnJnFqjPKgKBAAAkAACFQzAV7vGZuOXnkYkpArI0R9xBSJZyeANanmsoHXAwEgAARqCgHE9U//HJQUPFgVYgUVvzs7w6WmZAL0BAJAAAgAgeomwJl0LkUbo0sTqwvlB67tAQEfq7ts4P1AAAgAgRpEAOm8/mm+fgRhfHQijDoyGc43qUEFCaoCASAABKqEgCXdWxQpT4KTLRvaWjKRxuxG9TTxupj1mnf4okXyKd9QEV1KuA4EgAAQAAJAgIqAw+C1dxKlOjeKIs3PC3zxVKTgGhAAAkAACJRMgDfpHOG0E1nwVjiAsWRgcBcIAAEgUMcIGLmNMeXqzaAsTVwVpgWLbQcO+TpWUyC7QAAIAIESCRhpThjSlGyBUivJuh5YkxKxwk0gAASAQF0jYKw5YaAYpmNjYWlJ68OvawQhv0AACAABIIATMNqcAC0gAASAABAAAvQEjDUncgWqm+uiFwd3gAAQAAJAoG4SMNacMMQyuc6eWFrZ1E1ckGsgAASAABCgJmCsOZGkCwq04xMLFqdVE2p5cBUIAAEgAATqJAGjPerWDgN/HujcqMj8MK0/avtF22aNGjCFKe+zJXUSHGQaCAABIAAEykfAYcEdwpknxUEhMVn26yPeEGC4fEQhFRAAAkCgbhJgD9kdLjIICokVBm10q5tAINdAAAgAASBQPgKIx6zjodnEs7TwEMP5ASucyycOUgEBIAAEgECtIWC070SVY0Xqiwt7LoWKlBZMBlOJygvz0yNvbV++4uJ78J/UmhoBGQECQAAIAAEgAASAABAAAkAACAABIAAEgAAQAAJAAAgAASAABIAAEAACQAAIAAEgAASAABAAAkAACAABIAAEgAAQAAJAAAgAASAABIAAEAACQAAIAAEgAASAABAAAkAACAABIAAEgAAQAAJAAAgAASAABIAAEAACQAAIAAEgAAQqgQCzEmRWskhWv6V75n37sQ2ToURF4ScXzT0czWCwus/fvvgHO1smU4lJYs8vnb87BMJSlr0ggG3ZmUEKIAAEaiwB102vZMWndymVijS/qRxVTuxWBUow9VU0+/ocbo3NXrUqDmyrFT+8HAjUaALGnhVvRpnMFRTIlBp9xPk5qOq/0TyRRHNRKc7nF12s/T+HUX9ffhYRGxcf/171i4+PfXHYy778+Qa2xrPjdpuw3OfsnafB4TGxMaH3Ds7pxjI+cS140m7I6vNPImJjY8JfBVw/uX3hcNe6lf9aUISQBQaDO+1yhuZQSFnots6ICgp73OlEhXp0Io/c3btO1Gyk584wqWZMps684t3hIexyVxNgaxQ6xGWCT2CKdjhchB4VPFzqZFTqWvEQq49POKnuYQrhu2urBsC0QK0o3nJmwqqc6aoxmSyTn69kfKTSQCkT5qQX+UgkqXwhxmCoTgNTYvn8RGE1Klhlr27Y+qMmlvreL6ZlmY5EIytrjmyRjsOnj/JsVd+KqcuqEpWkPDmx60JkdTjIWH1WHdrxS+fG5JE907ZB44Z416Y6NKqyGqd7Ub0WzRuT6h7TspFD/8X7DwoG/LT1dR2BUA3cy/hKp0G/jv+mTQNiSSlRccrzs/t9X9eJNrJUXoj71mC18wTNuDxN3R1yWPO0sLijjvJvzeeVKqVWPNBx6YM8zUBNMzqJOzq8/KMT82OLdN8aLNYbgRWPBvg351VLV5g3Qzc6VkNXYvLciOPTOxYNlOvIjzd2fyiffNA3TgOTxR4eWv76V0fYVVU2OV5+aZo5G01VVf0bk4T79KuMCZwa6DuRpOcI1c4TZT4/U1ZcNgU5goJi54lSlJelvlhVxVZd7wnf8usvKw8EpJjMU2R+bBEupwm+iE//p8QK05OTq6OYOd9969ZM89koFVnBZ7YsnvZT9w4dxu0Or0ud8pQTUzs5efzw87y1+2+9zcdnBop+TCv7L3t3qEtmVb9mmtPf0oyUDLwvZqAS07rpRy3rGVyu+IUaaE4Ysqw8dfXFhPxE9Scsy8zFp8BUP6UoN01acTI1QoLk9enNe4IyNR9zxXU2d7by1//2ad++/WfOn7Ru7+XLr3iGyyyhwSctm2utiTTkkNfoBRv2XXiWUmZBtSBB1usbR/9Z5j3U+1i0XN1oMS05rZ0b14K81YYsCK/M6mT/idNn+BfTZdNL3QKmSstbDfSdMKQJGblKBj7RgYlzUotdJ/iUdXx6HqZsY8lUyvhp700wLYhwXb7o0MIiIzooPKWqe51sB49ObZti/A8xEW80Gay0KkASXDVsK5AXTMaPjo6ugIAKJkW4jXUz0VheanxyBQXWguSStynZUiXDungQWZ/VtALeu1qAw7yywE98q+p12UlNNoVRQv5qojkRBhzYstWyRwurgsjzpzS9Qsnro/9sbvhtK2tJ7JXjcfQ55vTwnj++Z9tmiJVmBkUpy3p2ZMnGG1lFiThdJ879ZfyPvT0cuQ1tLJhKpTw/KeTG7mVzN9xOL5bqOPC3GcM97JrUI4zsMFle7K3dfx16gdsxTo/piyZ/+0lj9deFJ8KkeYnPff/ddl2rF7fntHnjen7KtlVroRBGX9q45nhSh0nL//xlaI/P7ZvaWuD64VPRwtTYsJf3z/z7t49/WTvASMeR838Z6MptZK3TFJOL0sOv7dt8msZbWiG29NRrzx3rBvV0BctQyKq6p2H2JJnWNrZgTsy+mEBBExBgDzscq7+0Ft8MmXBqjMp96DB8w634fNTQ8YvJUy7OcCh6v8uf/nw973exkwsTvdzYFWGwBu+PNnyDEkOzb/3mqM4Be9SxeD0nJirwXz1lV1C23PDlRb6zwvTnB73dqeakCd5z1ZMKjSsecVv1WEipKYpr2o1KlAkAk0U4DF15OiAqKVsgzMtMjLh/dGH/Mq+RYI84Fk/wJsqCt7iZXM2yCGT13Rsl17g1FUlnxxftoq3jP96fD/I1VQ2TPl1jV8d5mGH27dY8JTRLimTfSZVRcWui76QChdXQxaEVoXOpkWTBtLDxnOt747/f+37SUDUs0Psxrbhf9e+nWkfE+cK1LYsSGtO2VTuXhoxGzp/ytAMfnRimRZO2rp+rl7ywOrTVf4Zp+/kvm72/aEaRVCWEWe/jzpN2XLqysrfRq2aQ9k6t61NqaoG0dsI1rewfZ/huv/+WjfrauVUzVqPGnNYuPcetO3FuQ5/KWFFS2XkB+UAACJROgLK9KT1ZTX1CkpSRQ+G3ZjbpeeDUX8MdG9DiUBaK8lTriEQfMnJRw6US+B2lIjMpTsSQxCamUz2gLMxMTlDPjBS8TcrUW2/BtGnGMdxDQsLMrMfrtXDPjglGdv0kEa9j+RoHKVGQEhPFR0SIKrsIHb1m/s+lEQko07Kpx4SZIyujW1TZudHJZxK2vzAwDKuKKemqy10534SRqjOT9jMqp3hIVkMI1LGCzzqzdvnOiw9fvHodz1dorYJFy+8mDbC3LR6VKBUFme+jo+NShfh8VHEpYoVJt/f+66fyaEkebV+35cLDFyHRqQVEu4QJQ/YsWe0vYfD9VizcEyzQ3MP3VCZHhgQ9uXFo2eLNr9TmJOvoikVbLz569d7AMilR4dvb+5dPG/nD9z9OmL/pzIu0QqLtYto6DF+8zLhd75LUV49fZxDsCR4wM/HZxX3r5/7Uc+CSJ5U958/6zLEVhXW2bN66XbXsFjHV92jFYTXQDV/lhWJTCa7JctBCmVyjP5PZoHHrKplKrcnEQPdaRYA426uZCVdi0vSXJ5YMcVZ/DDz3AeNn/vbHgunDPAw71IjrzLNvxTrfBIbyn28dxGXYj94VnKtxv6CimONTXejAEcNWFumA5gZtH0LyLiDuc/wSyK4YNP2SZutmkWBq34nTWJ8XWQRHDCqK9VvYyzAbdLpV+DrisfmVel+plq8qi0L/RUYOr4pVMDPfCavf7khteWCy4M3V68mpcDGZRgB71IkErYMLFT5e5WoauSDFZASqxndiMnVrmCADc4IpcoIPeLmVpVuFeC64kkBoMjFpSuCt4ByF2puOFSZc/q04ohg1HD1zgolDt1PEGrPzvphC2tmqSPKdQLALhuZkZM9552JFBC88btVOTqvqLduI56oAfPRF+mGKjBvznKlp0Fw1K3PiOHLnS8JCDEXKuUpxaNKgMOPLjssf6SocJku5s6x3FXZdzBiM2agG5qQyi4JsTjBZ2oN15Ylex+q1/G6KQaQJvAnFJd5fVYrfnGxOsMLgLZTGhzPJN5loTzDpyw2EEY+eOUGz30SlkcYzaP6Lv6tmIZdegSGuXgdeZGjsLYaHCgr8d1xZoySagznh9Z6x6eiVhyEJucSixhSJZ4l2vTKrq9nLdl36gNh3wAs7I+rJTd99K8e6w9ILcyg9MCeVWQpkc4JmXp1Z3hl9zoC/HmeS1/diCv6LbUNKFUg2J/Q6uG3RxCgr7uqTIybrmRPycKDoL0yacGFmVQ9ONIXHcRvs/fuy5Ut+mzKgo9Gr0gglX+3mBHH90z/HcPE4Kn53dgbtPGZlVl3zlM3quepBhuEyd0z6/iSspTaDIqsac1LHXPGVUK5Z98+de0leqMVkWtVv0rRpGV9mYUG9+wuxtiCXkhJVFGo9n0a8hGlj9+PqvcurZ4VuVsjlfZvWrF635eD18OqIiWIEn5IfafjFF06N9RePY7nPtk7+eVdkyUnr0l3hgxVj5xyP1R46pM4704bXsctnZZlCrkvQal1ea+KueHMqBMRtxuGTa79vSY4Tb9Go/YR/zqDoCK+jb4zVlslq7YR/d4YxVRp7tG1JNDSYlJ+WVMrCLKU8L1fSqClLrRbTgt3lVx+fNwPGHykhYICxmpbtOV7nwb3deLYFH17euh5SHHmgbAKq+WlRZGyiBGvZkGTSLZp6ztmzO37oxENGl69eNnidB/Xq1AoRVwiLSYTgiplADtJ10f7N/2uH6G3aUqLZ78LellJbq7mEaV9vAiwmYWsiIbT5hBsVJWCSyS7EdfqpGIILUpr6Jl6gnRfB0LzQfWM1O+EpFNZ3xUtjjww3cGAWz7UQprAwWeRu4kDDcLILFcdf/bOX87jDUUR/vBJTpN9bUqVOFOdxOx4k5KuXJmDyvNib64eWaVkXDq3aJ7vwtXNu49cfvx4YliQgeckweaLvpFJnNCnK3WnMNv/3wophYZhECK6caeQguO+EFCwCU4jSol/4X9z3e3+jSxzpOHXXjUdPnjzV/J4E3j8827VahjYmwWI+QvCYXSbYFW9OBUTxXVXjpYqbE9yWnCTaEkVmwPq+HOcpxwiNOIbmBu8aXRydxTCzBguFMXHsmRmkxWXcgRsCMzVLxdSOkKh9A4jeTX1XfH7Uce/iTxDpvuxeOmk6GxWG7RlR5jgnhpobcwXxWP5A3+eAB6u5PLsEA0sh1wzMiVYrh8Fr7yQSQ1Wk+XkZ2H+KPBAvIe5L/LP1XDE4lkszy4LFJEJwrUwlh+G0MlCkDQ+Er5kP2jO+zM46pMeO1+Q18Zgi+fyUKqqu5llGJisgU5gT8ymgUr6xKrzN8xg8wXvGzHmHQwmHMqG5T3fNnaX5zZzhPXFoV/pOFdt1wPgZa84RbQk+ENk1yr4oG/hWkfNxOtm4W/7V4T+nTxjkbtCRNTAnRW7zzNfX9m/487f5f6zecTpA24nVDE9Q/sPlxNBdiEv/2b6x2iBShJhdRcrYjz0USR6iyJJub5o9eWjnyv5K6fadCGr2vhPepHNJ2mV2+L6TrZRx1OjrM+K+MYh8KHBRyaKCe38YXyImEVJUVU2gjCqv7NEndftOMHHw1u7lGFK4rn9GPicNX5K4sTyC6Okbd8ckWMxHSHGmTTA6MaKA6pbvxGnOpbubBrUyOI7Joonn9G2exMqmVGQ//nt4v6WP9Kd9uWMO3d/3s1MDsnMWYzbt4OnGPpPAZ9h36ezQAG8hGMXBOPDAIl9MXLdrolKWdm/dqMGrA/QFkqs404bz+QCvzwdQVnwllvt8z6p/NJvrcWsx49Ttfwa3pIhCpk6fEHjlbvTQz75sopn5Z1q3+m7Bju8wcdSB8d2nXag857g1l93I4OBhBsMCYbFr8mkYKVdvBmUNacUtcmYxLVhsO4ShKw/KUiNdtOY1Z1HEZbNAGjfH170ZGTPaJEJwtUwlh2HzMbuR1mmCvn9+jSZedUl87L/v8lk9gudFiabc3L29lM+lJIHlvmcSLOYjpNwc9BIaU0B1amUXt2cfz5YGtoQSN9OqWec+/VoZ3GN/88O3eGgvPYcj04pl13Xg4B74JBS33+ABHT+ur/8Eg2nD/WbY8DJtkyS/XIkJo44vnLbGX3eWC7trd7eP6W0J3msctXbLDHetLdEJtKjv+FUvl3J0IQ2A0F0QRr1NJoWhKX4QzU6KVQf6p0tp3telKdkCXdwb63plZCh8E58qNowah/FT3hmPxSRCcMymksOwtLW21hQbHlaIH1f284a4/bt1IEZ4wwN0H9922kj7atoqYxIs5iPERHCMKqA6ZU5QcaHxJ5IpFVKJ4XJchbiQKqwiXmT48t2is2aV+P+of5hcKqEfm2DCuDA8Oj5lYjw2ybvbf08c+PN+8vmxhFBJ2leqBkaaH9Lq46YGhq3oJr7PUiyiV4Y6A2W6Gndgz9loPYOCCUJO7jlbA5d3EXKOYgRrYGFpSb26mxbVm8P7L7yVkA0KJnx9au/pMmAxiRBcRVPJYVgSB6JKIiFaEOQb7J7dP9cemayKp5p0zWdHpQeWo1HOJFjMRwhNLst22awKqGyqV9rT7P7rbr/NFisMd6VpfBOqf+NRYqWCpGd7J1D50JHui/wiMkQyvFXRpsFQmTDhzuriCCl2Y3Y9TytQEG6rBb48pBe+i+w7UaRcmGLnPnbloauB4QkZArFUoZCKcjM/RDy+tH/5KOr1LexBWwJTxbp34Ypn3F5M2FznOOXQq9R8srK4tqK00OMzqUWakj3iMnbT5eAPfLFcIRNlxz8/t2YYFdISX2lOrniVoiY47wRxnbjtWkiiBsuLC+tGlMUPX4zLJEJwUSaRU+HzTlRUCcvm0LzHqz3KOO4rsRaV+aZJsJiPkAqv7DK7Aipzidb6BIbmpKzLhGo9IrNYKEyijPTaFQnHZ+lVPJI5kQSuol/GQl1jkc54tG3dyjBZ3PFR8ClQoyrv1Yq54o0toDo12VXeooB0QEBLQCwjzHZaWtkAGj0CqFxW1jNg7Pp1dtT6NDHBkyNbLpdh6g9KoNIJGFtAYE4qvSjgBbWJgCRdUKB1cFmwOK2a1KbclS8viD2XrV2UpZQUCMpoTnjfd22vORtHKYu7uNMnpFLdeuXLZR1OZXQBgTmp+lpiP37P8ySBRPpuiSdhZaQFd/CeFJlMJpUIUkOqwrNR9RmvFW8sSMzgazzpzPpfeh06vHbOmN7O5QlvWfN52HkO9V6y49Sece21q5+xnNT4sp0pxvnu6w6a1YdY7uPDW89X3vr1mo+8GnIABVQN0I19JW/BnTy9c0CICwGKFgMUvvwbTiAqAqrnikdFae9iY2PfxEQ+OzGPMp6/scVQ7uccFtwhxRMpKjBZ9usj3nUqwDBn2LbAFLHBohZFspVF5wAAFuRJREFU4pkyRhBGuu4IkxV/AZg05oBxZ42Wu/TqVEL8jL8jgRExb/AvJjZVSGh0FMm+xp/UAwVkzpXGbnkAefevvjHB/5aF7ajS6Frmy4s18CBx07+OFSZ6sKSsLl/TZJM9ZHc4KdRAkVJYYdDGOnQ0I3vc6UTSqW5FDFB+4Noyb2Rn9fztvwdRGWKFJPHinLIdrmaaAq21Urhzbxr0fIoqq+L9iVHGj6eNL6C6tSveLOpN1oOAkLyvvmpKsWe8WD98I1hMgH80TB+rcAjv7dm8p/n/vuDYEjfQ4MFosl8cupBYLQXKvzh/8qJG+1eO/LwZYQ+pUi4pKKwWfarlpYrMXNUmKUIlVhamPj20yGtpmTeyCx9s+bnnFgaHyxWlGwbUrpbc1ZKXpl88vP+bel9/bPDthJ7Zftn4GUXjC0hve3ctwWju2WA59xnUw7m5rWVxIBaCuqp5E/6bx9du1czDQcwdvCn1cxr028yx/Tp3+ITbpL5FQeKTQ0tn/H3P+G/UlKpUiyzH0Vt2LhrakWNVKMxOiQ0JuPLfrgOPqmUbe7VkH14KBIAAEAACQAAIAAEgAASAABAAAkAACAABIAAEgAAQAAJAAAgAASAABIAAEAACQAAIAAEgAASAABAAAkAACAABIAAEgAAQAAJAAAgAASAABIAAEAACQAAIAAEgAASAABAAAkAACAABIAAEgAAQAAJ1jUANjNnF6rd0z7xvP8ZPb1OiovCTi+YejsaP8O4+f/viH+xsmUwlJok9v3T+bjiBpxx1GdiWAxokAQJAoKYScN30Sn08Ah5oOc1vatGp0sRz19Hs63O4NTV31as3sK1e/vB2IFCTCdTA0xhzBQUypYa5OD+n6CRRNE8k0VxUivP5ZTxetCYXoSl1N3+23G4TlvucvfM0ODwmNib03sE53VimBGDesuyGrD7/JCI2Nib8VcD1k9sXDnetQ5k376IB7WooAe60yxmag8VkoduKj+QjnuYjj9zdGz6zcpWuWbNFXCb4BKZIsKIDgNQ/VPBwqVO5slrzErH6+IRLibnHFMJ311YNgJF4zSvLWqpxDRydyDL5+eqBiFImzCk+cEeSyheqT/DGT5/iJwqroLyQbn/4hqUKC6WFwvTIK8v7VKsJM40yZsPWsPhYfVYd2vFL15a2JHcf07ZB44aI4dO18Uq9Fs0bk85cY1o2cui/eP/B+a51hEBtLNValacaaE4kiTrLUZCXJSsqD8mHnHys2MgoCwQ54iooJHZ/b++hHVs0qmdTr9HH7ft7TxtW5MWpnp+JlDEXtoYQeePm/PxlY3J1VSryonwPHo2qI+dWZvlfvhWRK9dO9BZBYlq3+O6Xud8bf1KrIVq4AgRMRKAmmpP0HKHaeaLM52cWmxNGQY6gQG1ORBobYyJGNGJsWjZj6XrKTFYzrg3Nk1Vw2UTKSMyErQExznffujXTVFalIiv4zJbF037q3qHDuN3hdcSaMBgpJ6Z2cvL44ed5a/ffepuvHowzmFb2X/buAOMTgzoDF6qcQE08K16WlYd/Sw0sGQxMyE9UNyYy/OxqJUPVSVOKctOkVQKSfDRvNa+5No0yZsNWrwAbfNKyudaaSEMOeY1eFFIlZWxuL8l6feMo/v+99+Qvb093KTqrnmnJae3cmPGozphVcysT0EdDoCaaE2lCRq6SgTsgMXFOarHrBJ/tik/Pw5RtLJlKGT/tvdGuE7a9m0s7bkNFbuKbqMgUbTKWY1ePFvlhj8KzqraqsOxc2n/Ka9rQxhKV5KbGRb9OqOLDx03J1oToEG7jBlq3AZaXGp9sQuE1UZTkbUq2VMkoMicMRn1WU7xzBT8gUM0EaqI5EQYc2LLVskcLq4LI86dS1AAlr4/+s7nht62sJbFXjseVRpXXe/ai2WO+6+Ly6UcNrS1U36RSickLclLiYiIj3ogdBv7YhWsjTTg7+5vRBxJLE1bB+9xuE2dMGtbTo72jHY/TuJ6ldpiBayTmp8ZFPr97ymfT3kfpFXyPUclNwNao95TxIesG9dQtpyqhQgYdcSJAprWNLZiTMlYpeLwSCFTzDE0l5KhUkew+y4/vX9jPvn6pfiM06ewk91HHyCMU+57jh3RzaGZrZenww8xRnVhqKUpJ1IXtfjGE/S74JktJ9tsAvxMB9AbJecKugxsmebYgL1fSz4ISK3h/be2kcRse6Y+6TKqM/msr/rfD0JXr5o/s5sxrbCXNS458cGzj4r9vaDoAZRHP6rv32TVv5+LOD5rsO+mLkXrFUhZpteFZ3p8PYtZ807Co9illz9Y5frWMvprVhgxDHoCA+RHgjjn6lrx1AVNIhLm5wkIFRtrRgG9swPfce5FXa3EnnIgv1H+MuA9C/79RcczBkXTLbnjTL6cpjJSGikJ39CcvRTatMiYvKs7w3WFCzQahIi6Ygv90Q7nWU+PmJEquYatIOju+GhfRmRxUuQTi5iRfAxeTPl1jVy4pkAgImJJAqT10U77MDGQ5e0378VPtWAATvbmwdJjrx6ymTVkt3X78bdetWAFKXohJ0pn1RXf31vXKMqKzQD7t8s3n1MtukNZOds1IGwmUivyUiMBbF8+du3z3VSLeXOjebtGgw09TRxBbUdMqY/KycfSa+T+XRqT6xbRs6jFh5sjymAImcaUBhmEQ9QDv/BDKjFnXPmST11cQaAICdawWcr/t4lw8QaBih+UF7pmz7mJk0RQSP/zKtpnffz1koW+U1qRIC8WkdkueLSgoydxQFIhSgW+DoZ7ql0Tdvh8uLGoVlPK8uMAzG6f1dm7V8evvh44Y8eN3X7oNXv0gk/A2y49cv+lBGOiYVhkK1St0ifWZY6sGhrXLsnnrduXYxW3FYTXQWXF5YVXsK6pQ9is9MVook2tewmQ2aNyaustS6XrAC4BAnSVgtzxArJtdwmRJN5f2NZgm4Paaf/hRbFpGnP/fg/TnqZwm+jyITs7KzcsTCERSlCALlYoEpF9eHj8rKereP2McSsDN6Txy9oJ5Uwa66r9IlQbpRYqqgQr9F/GIskytTAl6lvkW4rH5FcW0oCoPBsBLFc7qtztSG14EkwVvdis1SW1/gD3qRIJCM/2HCh+vcq3tOYb8AQEzI8Cdd5NPms5XYrK8D6GPrp057LN59aLZEwZ5OhgbK4U761qWThYqvE9u602Rc46XX5q2zVBi0mfr7GnEVoEyNG+mu4x4rgrIJbPGnScZN+Y506Wgu+44cudLQqkpUs5NKs98GZ34GnrdcfkjkRYvJku5s6w3UKmhZQlq10wCiPu6p7qPUN9vXuwuFud8CH985fBf0/uUNKxgMEzVgiMOvaeu3ut7KzAkOi4xNSMrOzsrIy0p/k1YUMCdhzHEFln2fL0jDXdTKUMjvlyXEVevAy8yNEMUDBWnBP47zvh4jbzeMzYdvfIwJCFXRliugCkSz06AdhMvENelD4iVA+ebEfXkpu++lWPdje0RlatYIREQAAJqAnYTT7yjmIShsCyYPC/25saRdA24KcwJ4jpx+523eXIjV3fVMHNSRJzjNtj792XLl/w2ZUBHqgk9moqJuP7pn0OYS1SXDyp+d3aGC02aunaZ1XPVgwzDuoNJ35+ElW91rTJAfquJALvnwgsxAuMW6GJo7vNNfak7exUdECAe8y4lkNYsY6gk611wwJ3rly9fvnH3cVDUh2wxUc+aaE7KWcicSedSdNN8GmPCD1zbA1zOBKS8UYdjCM5ANSdZ+L/dAVM5ax4kAwJlJcByG7PqyO3gBL7EsAesN1BBM6/OIjnANe+qoDlxXnCb4HrB3QrZL/dM8SB34En+VqWyRpoTXufBE6ZN9x43wK0sU1RI5/VPtfsqdCWCCqOOTDZ+vsygWvA6DxrvXWZl9MSYixCk66LrSYYjbUyR6uddjtVzBrDgAhAAAqUSQDgcbavN6dhn1LTfV23e9d+5m4HhiXlSg72MSsX746Oopmm4M6/i63g1P0wSuLIsS5ZcVgeKiC6BwuCtXQ16lGUwJxVSplRk5XvAedyOBwn56vFV0dzh+qFGM0Lcxq8/fj0wLElAdJ3ggWcSfSeVp7F0GrPN/72wnMpo8m8+QhgI7jshLSvBFKK06Bf+F/f93t9oyOUrV0gFBICAioDzLN93+QpUmh16ZKqLQfPNYHuM33SbPAOlRDMuT6dqvzhTicuulPLYw4OpZsXsuo/5deG80V3JfXP26JO6dZ64SULzHy61NygizvgziYQpnxJGJxVSxuC9priAeCx/oO/9wOQpl2fTOqNo3uoweO2dRMIphIaxCmgSEi4j7kv8s/UGorgyl2aWRRnzEaLKmdNKQn8EQ/lBe8Z3NKzQpaOBJ4AAECgfAd6CO3nFIwpMkfVodS/K9n/hPXwfo+6niD9OGSaFPeJYPKGtx7vNl2e76T5oXrcJKw/eDE0RqTrEmCL35dYBhLexx57+QPINoIKgHUMIvUped69NfmHZpJ65POrU7FE9HKgajQopUz6WJaei23ciKM++E96kc0laWvi+k63uVAzoFULcNwaRI+sUFS8quPcH5TwmpSTzEaJSj9QfwcTBW8FbQllqcBEIVBoBu1WBumYFk2W9Or5wALmDirhM90skLpdBs2/8St3muKx7SnaDYnJBYvjzwMdPgiISyE50vO2Sx+wnxtxy2/BCv4HDpDnxoc8eP34aFB6fWUCzVgCTZz1aS2EGK6RMJfBmDToUq42yRTDOsqCNHcv+OtIGHMW7I0OpZh/pxbIGm0AZ8xGiyij315s52k6PPHJ3b6qeET0RuAMEKoFATQxQbyoMTOvmX4z969Lg2W8iIt8mZuaKZDbNPunUtWv7j6y0AT2Uhe8uHzpJHQQ3/sqDsDmdu+iCtjCtWK07dG5NpZ8SEyTFxgt1t2Iu3g2d4e5JDGrFtGF/4trlE6rkumtMq2aeAwd3WOf/hBy5pULKlPzKct0VRr1NLsAc9Y7jZaDZSbHliLQvTckWFB1xU/Szrle2wQlD+CY+VYw5aqI/azKE8VPeGa+M+QhR6W9pa22tyYcSy+fHEeqW5jr8GwgAgUokYLfisf6YgNBz1v9PTJYRsGFgCQuSOIO3veTTDCMIwrDC9Gd7Juq7atiDtgXllriwDBUnB56+HqWnMVYYtJEqyEiFlKkE5pyR+yL0toyieS839ytPN7rCEYV5Y/EVteQ9+qggeBtx/rF0BOYjhMGAiMKllxc8AQQqlQB32uUMte9EKhJKaC0BvgMkM+LG9ikepbZ9vH6LTj1PLqA2C5hMkPDiss/8/jT76+2HrL4cySf5R4qsEL7DOf31jT3z+9szGA7j975ME8lVK87wQLpSQVLQ4Wl0PtcKKWN68IjL2E2Xgz/wxXKFTJQd//zcmmE0IEp7d4XNCR4AzXXitmshiRplXlxYN6IsfvhiDc1HCJiT0uoM3K96AmUJtl712pn+jey+C7fM7tks/+2D41t3v2zUs3/vzp+3s2/5cbMmDRAbawZaKBbkpL6PennH79zdN0bPHyBOfcb+NKCLyyctmzWsZ4FKJQV5mckf3oT4X71wN7o0KdyuY38e2rNT2xZNG1ijYkFuxvvQgGt+5x/FUcchLpVJhZQpVXr1PID02hV0a3p7OD5Li590fFbhkzVO3VbA8VnVUznhrUAACNQkAojnP6EyzfShIvXClBJmIGtSvsqvK2l0InqwhHq1SPnlQ0ogUHYChidSlF0GpAAClUxAkk44aMaCxWnVpJJfaO7iEXsuW3uOm1JSIIDzxMy9yOqCfnV5ZVddKN/akseCxAw+xmhpqcoPs/6XXocOW/veuX/n5r1ofm3JopH5sPMc+n3vbweMHtdeu/4Qy0mNhwPFjOQHjwEBIFDXCTgsuKN3Ug2+NEGW/fqId90JMMwZti0wRWyw6kOReAYiCNf17wPyDwSAgPEE2EN2hxseVUO3atp4uTXnSfa408SQO8WuJDy8SuBa2BFfc0oRNAUCQMAMCCAes46HksPO4LHOAlY4m4FuVaECqy/hiOPiBeWSlECf8XUl/1XBGN5RIQJFk9HwAwI1gIAi9cWFPZdCRUoLJoOpROWF+emRt7YvX3HxfTmXVNeAPBNVlMbF8ps6OXLrY6KslPiIJzdObFngPWv34+walg9QFwgAASAABIAAEAACQAAIAAEgAASAABAAAkAACAABIAAEgAAQAAJAAAgAASAABIAAEAACQAAIAAEgAASAABAAAkAACAABIAAEgAAQAAJAAAgAASAABIAAEAACQAAIAAEgAASAABAAAkAACAABIAAEgAAQAAJAAAgAASAABIAAEAACQAAIAIFKIGA3ZPX5JxGxsTHhrwKun9y+cLgrqxLeAiKBABAAAkCgVhNg9fEJl2LFR/QUn62gEL67tmoAt1bnGjIHBIAAEAACJibAGX+G4ug3Wcq1+a6IiV8F4oAAEAACQKAWE+CN3R/KlxHHJ6pBCiaLPTyUXYuzDVkDAkAACAAB0xPguPafMHfNvpuxQlQz7YXJwv/tAeMT07MGiUAACACB2k8A6ekToR2noOmXpoEDpfYXOuQQCAABIFAmAhbGPC15m5ItVWqerM9qCifMG4MNngECQAAI1CECRpkTEg+mtY0tmJM6VEUgq0AACAABYwiU3ZwwLCzAmhiDFp4BAkAACNQlAuUwJ3UJD+QVCAABIAAEjCNgpDnBMK3rBJfLNDKVcSrAU0AACAABIFDzCRhnGNBCmVyTVyazQePWsFK45hc95AAIAAEgYEoCxpkTWVpOvnZ4Ymnv1qedKXUAWUAACAABIFBXCDgufyQi7GRMubOsN6eu5B3yCQSAABAAAqYj4Lr0Qa7WnuCxVlBxRtSTm777Vo51hzjDpsMMkoAAEAACtZ4Aq+eqBxly/RBeSkz6/uR4GKjU+uKHDAIBIAAETEiAN+pwjNjAoOAxvLqDZ96EmEEUEAACQKBWE0C6LrqeVGhgTDBFqp83hPCq1UUPmQMCQAAImI4AgvtO+ATfiRJTiNKiX/hf3Pd7fzvTvQYkAQEgAASAQO0m4LQyUKQdmWAoP2jP+I4ww1W7yxxyBwSAABAwPQH26JMJCu2JJ+LgreAtMT1kkAgEgAAQqMkEjNvGaPMxuxFTk030/fNrryU1OdOgOxAAAkAACJiagHHmxNLW2lrzZiWWz48TmloPkAcEgAAQAAI1moBx5oRhaakdnDAYSgyr0XkG5YEAEAACQMDkBIw0JyZ/LwgEAkAACACBWkWgHOYEg8FJraoCkBkgAASAgCkIlMOcoHIZaopXgwwgAASAABCoPQSMMieIPZddT+M8UUoKBGBOak8NgJwAASAABExCwKpkKXaeQ7/v/e2A0ePaW2nMCZaTGi8uORXcBQJAAAgAASCgIcAZti0wRYzqR+lSJJ6BCMJQS4AAEAACQMBYAuxxpxO1G+G1G+JRfuBa2BFvLEN4DggAASAABBisvrsjpaShCSZJCfQZ7wxsgAAQAAJAAAiUhYDj6C03Q+NTUhLjooMfXTq4zqsHryzJ4VkgAASAABAAAkAACAABIAAEgAAQAAJAAAgAASAABIAAEAACQAAIAAEgAASAABAAAkAACAABIAAEgAAQAAJAAAgAASAABIAAEAACQAAIAAEgAASAABAAAkAACAABIAAEgAAQAAJAAAgAASAABIAAEAACQAAIAAEgAASAABAAAkAACAABIAAEgAAQAAJAAAgAASAABIAAEAACQAAIAAEgAASAABAAAkAACAABIAAEgAAQAAJAAAgAASAABIAAEAACQAAIAAEgAASAABAAAkAACAABIAAEgAAQAAJAAAgAASAABIAAEAACQMDsCfwfFGnVR8dXZbwAAAAASUVORK5CYII=;" vertex="1" parent="1">
          <mxGeometry x="560" y="360" width="160" height="81.19" as="geometry" />
        </mxCell>
      </root>
    </mxGraphModel>
  </diagram>
</mxfile>
